<svg id="Calque_1_Image" data-name="Calque 1 Image" xmlns="http://www.w3.org/2000/svg" viewBox="0 0 209.89 67.21"><path d="M52.26,0H42.19a4.88,4.88,0,0,1-.58,1q-12,12.41-23.95,24.78-3.61,3.73-7.2,7.52a14.57,14.57,0,0,0-1.12,1.55l-.48-.29c0-.32-.1-.64-.1-1q0-16.32,0-32.63A7.31,7.31,0,0,1,8.87,0H0V61.94c2.47,0,4.94-.13,7.41-.09,1.06,0,1.37-.33,1.36-1.37Q8.7,53.72,8.79,47a3.25,3.25,0,0,1,.77-2c3-3.21,6.16-6.36,9.26-9.52,1.24-1.26,1.24-1.24,2.42.12Q32.35,48.37,43.47,61.13c.25.28.62.64.94.64,3.06,0,6.12,0,9.42,0-.38-.49-.6-.8-.84-1.09Q39.91,44.84,26.8,29c-.69-.83-.79-1.35,0-2.17,4.53-4.72,9-9.49,13.5-14.24Z"/><path d="M72.24,14.87a8,8,0,0,0-.51.73q-5.52,9.58-11,19.18a3.77,3.77,0,0,0-.41,1.82c0,5.77.11,11.55.25,17.32a2.07,2.07,0,0,0,.91,1.46C68,59.24,74.46,63,81,66.85A1.93,1.93,0,0,0,84,65.08c0-5.34,0-10.68,0-16a3.68,3.68,0,0,1,.36-1.71c3-5.28,6-10.53,9-15.81.46-.81.88-.82,1.61-.39,2.65,1.57,5.31,3.11,8,4.59a2.08,2.08,0,0,1,1.18,2.11c0,5.1,0,10.2,0,15.3v1.31c1.27-.36,1.78-1,1.77-2.18-.06-5.54-.05-11.08,0-16.62a2,2,0,0,0-1.15-2q-14.67-8.46-29.31-17Z"/><path d="M202.08,55.65c0,.69.09,1.07.09,1.44,0,1.16.06,2.32,0,3.47s.35,1.32,1.32,1.28c1.6-.06,3.2,0,4.8,0s1.6,0,1.6-1.55c0-5.5,0-11,0-16.5,0-4.54,0-9.09-.25-13.61a15.5,15.5,0,0,0-11.87-14.52,32.22,32.22,0,0,0-15.37-.32,27.1,27.1,0,0,0-10.72,4.52c-.33.24-.73.92-.61,1.16.91,1.88,1.95,3.71,2.91,5.5a2.09,2.09,0,0,0,.3-.05l.9-.59a24.33,24.33,0,0,1,17.73-3.68c4.14.68,7.1,3,8.19,7.22a12.17,12.17,0,0,1,.39,3.06c0,2.92.47,2.55-2.49,2.56-4,0-8.07-.1-12.1.06a35.79,35.79,0,0,0-7.44,1c-6.75,1.67-10.14,6.17-10.07,12.95,0,5,3.39,9.53,8.54,11.63A24.3,24.3,0,0,0,188.85,62c4.89-.32,9.33-1.76,12.52-5.8A5,5,0,0,1,202.08,55.65Zm-8.36-14.87c2.32,0,4.64,0,6.95,0,.76,0,1.08.23,1.07,1,0,1.8.12,3.6-.05,5.38-.21,2.12-1.53,3.72-3,5.14a12.69,12.69,0,0,1-7.75,3.41c-3.23.32-6.46.31-9.47-1.24a7.08,7.08,0,0,1-3.64-8.58,6.35,6.35,0,0,1,4.74-4.32,23.53,23.53,0,0,1,4.94-.77C189.56,40.68,191.64,40.78,193.72,40.78Z"/><path d="M122.18,50.64c-1,2-2,3.77-2.92,5.63a1.32,1.32,0,0,0,.41,1.23,27.47,27.47,0,0,0,4,2.12,37.89,37.89,0,0,0,21.17,1.86,17.07,17.07,0,0,0,10-5c4.49-4.87,4.22-14-2.25-17.51a21.27,21.27,0,0,0-4.74-2c-3-.77-6.09-1.26-9.12-1.94A67.06,67.06,0,0,1,132,33.24a5.21,5.21,0,0,1-3.64-3.67c-.71-2.78.69-5.39,3.71-6.66,4.46-1.86,9.08-1.64,13.64-.59a62.62,62.62,0,0,1,7.18,2.56c-.13.09,0,.06,0,0,.71-1.24,1.43-2.49,2.12-3.74,1.37-2.48,1.38-2.52-1.31-3.58a37.26,37.26,0,0,0-17.32-2.67,23.21,23.21,0,0,0-9.8,2.81c-5,2.9-7.07,7.3-6.36,13,.61,4.88,3.72,7.81,8.2,9.14,3.84,1.15,7.84,1.75,11.75,2.67a51.73,51.73,0,0,1,6.42,1.81,4.49,4.49,0,0,1,3.09,4.18A5.33,5.33,0,0,1,147,53.58a9.87,9.87,0,0,1-2.53,1.05,26.24,26.24,0,0,1-11.73.12A31.34,31.34,0,0,1,122.18,50.64Z"/><path d="M91.73,61.74c1.42-.83,2.72-1.5,3.92-2.33a2.16,2.16,0,0,0,.83-1.5c.08-3.42,0-6.84,0-10.26a6,6,0,0,0-.12-.76c-1.36.79-2.58,1.54-3.83,2.22a1.63,1.63,0,0,0-.92,1.64c0,3.22,0,6.44,0,9.67C91.67,60.8,91.7,61.18,91.73,61.74Z"/></svg>